<mxfile host="app.diagrams.net" modified="2025-02-13T12:57:09.003Z" agent="Mozilla/5.0 (Windows NT 10.0; Win64; x64) AppleWebKit/537.36 (KHTML, like Gecko) Chrome/132.0.0.0 Safari/537.36 Edg/132.0.0.0" version="23.0.2" etag="J0a3tWi85vzJ0J7tscsR" type="github">
  <diagram name="Page-1" id="rA7QcrsY9MnkE5HdZlki">
    <mxGraphModel>
      <root>
        <mxCell id="0" />
        <mxCell id="1" parent="0" />
      </root>
    </mxGraphModel>
  </diagram>
</mxfile>
